<svg width="232" height="87" viewBox="0 0 232 87" fill="none" xmlns="http://www.w3.org/2000/svg">
<path opacity="0.8" d="M47.1116 73.7837C46.183 72.1818 44.0992 71.6982 42.4551 72.5587C37.4226 75.1925 31.6925 76.6828 25.6128 76.6828C19.1986 76.6828 13.1735 75.024 7.94628 72.1136C6.29315 71.1932 4.15125 71.6592 3.20428 73.2927L1.28621 76.6014C0.433019 78.0732 0.867745 79.9629 2.34567 80.8123C9.19301 84.748 17.1389 86.9999 25.6128 86.9999C33.6925 86.9999 41.2921 84.9527 47.9172 81.3506C49.4393 80.5231 49.9044 78.6014 49.0374 77.1057L47.1116 73.7837Z" fill="#373B53"/>
<path opacity="0.8" d="M37.9969 60.4959C37.2632 59.3082 35.6766 58.8697 34.294 59.3288C31.8358 60.1451 29.1891 60.5894 26.4314 60.5894C23.3938 60.5894 20.491 60.0503 17.8264 59.0689C16.4228 58.552 14.7729 58.9769 14.0186 60.198L13.1679 61.575C12.3826 62.8464 12.868 64.4846 14.3113 65.0637C18.0303 66.556 22.1276 67.3824 26.4314 67.3824C30.3888 67.3824 34.1716 66.6837 37.6462 65.411C39.1385 64.8644 39.6628 63.1928 38.8615 61.8955L37.9969 60.4959Z" fill="#373B53"/>
<path fill-rule="evenodd" clip-rule="evenodd" d="M26.0147 52.0294C40.3822 52.0294 52.0294 40.3822 52.0294 26.0147C52.0294 11.6472 40.3822 0 26.0147 0C11.6472 0 0 11.6472 0 26.0147C0 40.3822 11.6472 52.0294 26.0147 52.0294ZM26.0147 41.674C34.6631 41.674 41.674 34.6631 41.674 26.0147C41.674 17.3663 34.6631 10.3554 26.0147 10.3554C17.3663 10.3554 10.3554 17.3663 10.3554 26.0147C10.3554 34.6631 17.3663 41.674 26.0147 41.674Z" fill="#373B53"/>
<path fill-rule="evenodd" clip-rule="evenodd" d="M25.2177 0C24.9417 0 24.714 0.193816 24.714 0.439002C24.714 6.66193 30.392 11.7066 37.3961 11.7066C44.4003 11.7066 50.0783 6.66193 50.0783 0.439002C50.0783 0.193816 49.8506 0 49.5746 0H25.2177Z" fill="#373B53"/>
<path d="M110.769 44.0582V42.7711C110.769 42.0683 110.189 41.4986 109.473 41.4986H90.6209C89.9053 41.4986 89.3251 42.0683 89.3251 42.7711V47.5557C89.3251 48.2585 89.9053 48.8283 90.6209 48.8283H100.01C100.827 48.8283 101.443 49.5655 101.165 50.3193C99.6181 54.511 95.3575 57.3213 90.0952 57.3213C82.5722 57.3213 76.8262 51.5623 76.8262 44C76.8262 36.4377 82.3945 30.7368 89.8583 30.7368C93.8508 30.7368 97.4127 32.2402 100.2 35.0357C100.719 35.5561 101.571 35.6166 102.116 35.1233L106.198 31.4329C106.702 30.9767 106.761 30.21 106.294 29.7166C102.295 25.4926 96.2839 23 89.8583 23C77.5963 23 68 32.1911 68 44C68 55.8089 77.6556 65 89.9767 65C101.943 65 110.769 56.0997 110.769 44.0582Z" fill="#373B53"/>
<path d="M116.097 63.0876C116.097 63.7904 116.677 64.3601 117.393 64.3601H122.916C123.632 64.3601 124.212 63.7904 124.212 63.0876V45.0619C124.212 44.861 124.259 44.6621 124.358 44.4862C125.924 41.6942 128.633 40.2188 131.676 40.2188C132.436 40.2188 133.196 40.2954 133.916 40.4407C134.837 40.6266 135.823 39.9886 135.823 39.0652V34.7911C135.823 34.3344 135.578 33.8985 135.14 33.7448C134.455 33.5042 133.628 33.3976 132.446 33.3546C129.92 33.3546 127.714 34.1092 125.946 35.5492C125.327 36.0538 124.212 35.6608 124.212 34.8704V34.8704C124.212 34.4188 123.839 34.0526 123.379 34.0526H117.393C116.677 34.0526 116.097 34.6224 116.097 35.3251V63.0876Z" fill="#373B53"/>
<path d="M161.758 63.542C161.758 63.9938 162.131 64.3601 162.592 64.3601H168.46C169.175 64.3601 169.755 63.7904 169.755 63.0876V35.6795C169.755 34.8526 168.965 34.2453 168.147 34.4445L162.191 35.8962C161.84 35.9818 161.47 35.9166 161.16 35.7337C158.826 34.3574 156.053 33.6454 153.228 33.6454C144.284 33.6454 137.294 40.4515 137.294 49.1773C137.294 57.903 144.224 64.7673 152.991 64.7673C155.656 64.7673 158.163 64.1057 160.349 62.8142C160.944 62.4623 161.758 62.8593 161.758 63.542V63.542ZM145.291 49.1773C145.291 44.1745 149.141 40.3934 154.295 40.3934C156.999 40.3934 159.498 41.3024 161.264 42.8852C161.512 43.1078 161.64 43.4284 161.64 43.7587V54.5373C161.64 54.8678 161.512 55.1883 161.265 55.4131C159.47 57.0488 157.115 57.9612 154.295 57.9612C149.2 57.9612 145.291 54.1219 145.291 49.1773Z" fill="#373B53"/>
<path d="M180.349 55.8089C180.349 61.7424 183.903 64.8255 190.775 64.8255C192.261 64.8255 194.451 64.5407 196.133 64.1413C196.685 64.0102 197.054 63.5148 197.054 62.9573V59.145C197.054 58.2765 196.187 57.6718 195.32 57.8443C194.473 58.0129 193.667 58.0776 192.729 58.0776C189.59 58.0776 188.464 57.0305 188.464 54.1801V42.0149C188.464 41.3121 189.045 40.7424 189.76 40.7424H195.936C196.651 40.7424 197.231 40.1727 197.231 39.4699V35.3251C197.231 34.6224 196.651 34.0526 195.936 34.0526H189.76C189.045 34.0526 188.464 33.4829 188.464 32.7801V26.1051C188.464 25.289 187.693 24.6838 186.883 24.864L181.359 26.0914C180.768 26.2226 180.349 26.7379 180.349 27.3325V32.7801C180.349 33.4829 179.769 34.0526 179.053 34.0526H175.306C174.591 34.0526 174.011 34.6224 174.011 35.3251V39.4699C174.011 40.1727 174.591 40.7424 175.306 40.7424H179.053C179.769 40.7424 180.349 41.3121 180.349 42.0149V55.8089Z" fill="#373B53"/>
<path d="M224.003 63.542C224.003 63.9938 224.376 64.3601 224.836 64.3601H230.704C231.42 64.3601 232 63.7904 232 63.0876V35.6795C232 34.8526 231.209 34.2453 230.392 34.4445L224.435 35.8962C224.084 35.9818 223.714 35.9166 223.404 35.7337C221.071 34.3574 218.298 33.6454 215.473 33.6454C206.528 33.6454 199.538 40.4515 199.538 49.1773C199.538 57.903 206.469 64.7673 215.236 64.7673C217.901 64.7673 220.407 64.1057 222.593 62.8142C223.189 62.4623 224.003 62.8593 224.003 63.542V63.542ZM207.535 49.1773C207.535 44.1745 211.386 40.3934 216.539 40.3934C219.244 40.3934 221.742 41.3024 223.508 42.8852C223.757 43.1078 223.885 43.4284 223.885 43.7587V54.5373C223.885 54.8678 223.756 55.1883 223.51 55.4131C221.715 57.0488 219.359 57.9612 216.539 57.9612C211.445 57.9612 207.535 54.1219 207.535 49.1773Z" fill="#373B53"/>
</svg>
