<svg width="20" height="20" viewBox="0 0 20 20" fill="none" xmlns="http://www.w3.org/2000/svg">
<path fill-rule="evenodd" clip-rule="evenodd" d="M5.4612 18.4264V7.56297H2.10359V18.4264H5.4612ZM5.4612 3.71236C5.4412 2.74019 4.79329 2 3.74074 2C2.68791 2 2 2.74019 2 3.71236C2 4.66341 2.66791 5.42501 3.70047 5.42501H3.72047C4.79329 5.42501 5.4612 4.66341 5.4612 3.71236ZM10.939 18.4264V12.2369C10.939 11.9057 10.9629 11.5744 11.0603 11.3383C11.3266 10.6761 11.9327 9.99068 12.9504 9.99068C14.2836 9.99068 15.1197 10.7473 15.1197 12.2369V18.4264H18.5V12.0713C18.5 8.66699 16.6827 7.08289 14.2587 7.08289C12.2712 7.08289 11.3988 8.19405 10.9144 8.95036L10.9386 7.49742H7.56421C7.61275 8.53741 7.56421 18.4264 7.56421 18.4264H10.939Z" fill="#69696E"/>
</svg>
