<svg width="600" height="204" viewBox="0 0 600 204" fill="none" xmlns="http://www.w3.org/2000/svg">
<path opacity="0.8" d="M110.469 173.01C108.291 169.254 103.405 168.12 99.5499 170.138C87.7497 176.314 74.3134 179.808 60.0577 179.808C45.0176 179.808 30.8896 175.919 18.6327 169.094C14.7564 166.936 9.73402 168.029 7.51356 171.859L3.01601 179.617C1.01542 183.068 2.03478 187.499 5.50025 189.491C21.5561 198.72 40.1877 204 60.0577 204C79.0032 204 96.823 199.2 112.358 190.753C115.927 188.813 117.017 184.307 114.984 180.8L110.469 173.01Z" fill="white"/>
<path opacity="0.8" d="M89.0961 141.852C87.3758 139.067 83.6555 138.039 80.4135 139.116C74.6495 141.03 68.4434 142.072 61.977 142.072C54.8545 142.072 48.0478 140.807 41.7998 138.506C38.5087 137.294 34.6398 138.29 32.8711 141.154L30.8765 144.383C29.0351 147.364 30.1732 151.205 33.5574 152.563C42.2779 156.062 51.8853 158 61.977 158C71.2564 158 80.1264 156.362 88.2738 153.377C91.7729 152.096 93.0025 148.176 91.1234 145.134L89.0961 141.852Z" fill="white"/>
<path fill-rule="evenodd" clip-rule="evenodd" d="M61 122C94.6894 122 122 94.6894 122 61C122 27.3106 94.6894 0 61 0C27.3106 0 0 27.3106 0 61C0 94.6894 27.3106 122 61 122ZM61 97.7184C81.279 97.7184 97.7184 81.279 97.7184 61C97.7184 40.721 81.279 24.2816 61 24.2816C40.721 24.2816 24.2816 40.721 24.2816 61C24.2816 81.279 40.721 97.7184 61 97.7184Z" fill="white"/>
<path fill-rule="evenodd" clip-rule="evenodd" d="M59.1311 0C58.484 0 57.95 0.454465 57.95 1.02938C57.95 15.6211 71.2639 27.45 87.6875 27.45C104.111 27.45 117.425 15.6211 117.425 1.02938C117.425 0.454466 116.891 0 116.244 0H59.1311Z" fill="white"/>
<path d="M280.424 103.768V100.333C280.424 98.4579 278.895 96.9376 277.009 96.9376H227.329C225.443 96.9376 223.914 98.4579 223.914 100.333V113.101C223.914 114.977 225.443 116.497 227.329 116.497H252.072C254.224 116.497 255.849 118.464 255.116 120.476C251.039 131.662 239.811 139.161 225.943 139.161C206.118 139.161 190.975 123.793 190.975 103.613C190.975 83.4322 205.649 68.2193 225.319 68.2193C235.84 68.2193 245.227 72.2309 252.573 79.691C253.94 81.0797 256.185 81.2412 257.623 79.9247L268.378 70.0769C269.707 68.8593 269.861 66.8133 268.631 65.4967C258.094 54.2247 242.252 47.5731 225.319 47.5731C193.005 47.5731 167.715 72.1001 167.715 103.613C167.715 135.125 193.161 159.652 225.631 159.652C257.164 159.652 280.424 135.901 280.424 103.768Z" fill="white"/>
<path d="M294.465 154.549C294.465 156.424 295.994 157.945 297.88 157.945H312.437C314.323 157.945 315.852 156.424 315.852 154.549V106.446C315.852 105.91 315.976 105.38 316.236 104.91C320.363 97.4596 327.502 93.5224 335.521 93.5224C337.524 93.5224 339.526 93.7268 341.423 94.1146C343.851 94.6107 346.449 92.908 346.449 90.4439V79.0382C346.449 77.8196 345.804 76.6564 344.65 76.2462C342.844 75.604 340.666 75.3196 337.55 75.2048C330.894 75.2048 325.081 77.2187 320.422 81.0613C318.789 82.4078 315.852 81.359 315.852 79.2499C315.852 78.0446 314.869 77.0676 313.657 77.0676H297.88C295.994 77.0676 294.465 78.5879 294.465 80.4634V154.549Z" fill="white"/>
<path d="M414.797 155.761C414.797 156.967 415.78 157.945 416.993 157.945H432.457C434.343 157.945 435.872 156.424 435.872 154.549V81.4091C435.872 79.2023 433.788 77.5818 431.634 78.1133L415.937 81.9873C415.011 82.2157 414.037 82.0418 413.219 81.5537C407.069 77.8808 399.762 75.981 392.318 75.981C368.746 75.981 350.326 94.1434 350.326 117.428C350.326 140.714 368.59 159.031 391.694 159.031C398.717 159.031 405.322 157.266 411.082 153.819C412.652 152.88 414.797 153.94 414.797 155.761ZM371.4 117.428C371.4 104.078 381.547 93.9881 395.128 93.9881C402.255 93.9881 408.84 96.4139 413.494 100.638C414.149 101.232 414.485 102.087 414.485 102.969V131.732C414.485 132.614 414.147 133.469 413.497 134.069C408.768 138.434 402.56 140.869 395.128 140.869C381.703 140.869 371.4 130.623 371.4 117.428Z" fill="white"/>
<path d="M463.789 135.125C463.789 150.959 473.156 159.186 491.264 159.186C495.18 159.186 500.952 158.427 505.385 157.361C506.839 157.011 507.811 155.689 507.811 154.201V144.028C507.811 141.71 505.527 140.097 503.243 140.557C501.009 141.007 498.886 141.179 496.415 141.179C488.142 141.179 485.176 138.385 485.176 130.779V98.3153C485.176 96.4399 486.705 94.9195 488.59 94.9195H504.865C506.751 94.9195 508.279 93.3992 508.279 91.5238V80.4634C508.279 78.5879 506.751 77.0676 504.865 77.0676H488.59C486.705 77.0676 485.176 75.5473 485.176 73.6719V55.8592C485.176 53.6814 483.143 52.0665 481.007 52.5472L466.45 55.8227C464.894 56.1728 463.789 57.548 463.789 59.1347V73.6719C463.789 75.5473 462.26 77.0676 460.374 77.0676H450.501C448.615 77.0676 447.086 78.5879 447.086 80.4634V91.5238C447.086 93.3992 448.615 94.9195 450.501 94.9195H460.374C462.26 94.9195 463.789 96.4399 463.789 98.3153V135.125Z" fill="white"/>
<path d="M578.831 155.761C578.831 156.967 579.814 157.945 581.026 157.945H596.49C598.376 157.945 599.905 156.424 599.905 154.549V81.4091C599.905 79.2023 597.822 77.5818 595.668 78.1133L579.97 81.9873C579.045 82.2157 578.07 82.0418 577.253 81.5537C571.103 77.8808 563.795 75.981 556.352 75.981C532.78 75.981 514.359 94.1434 514.359 117.428C514.359 140.714 532.623 159.031 555.727 159.031C562.75 159.031 569.355 157.266 575.115 153.819C576.685 152.88 578.831 153.94 578.831 155.761ZM535.433 117.428C535.433 104.078 545.58 93.9881 559.161 93.9881C566.289 93.9881 572.874 96.4139 577.527 100.638C578.182 101.232 578.519 102.087 578.519 102.969V131.732C578.519 132.614 578.181 133.469 577.531 134.069C572.801 138.434 566.593 140.869 559.161 140.869C545.736 140.869 535.433 130.623 535.433 117.428Z" fill="white"/>
</svg>
