<svg width="122" height="204" viewBox="0 0 122 204" fill="none" xmlns="http://www.w3.org/2000/svg">
<path opacity="0.8" d="M110.469 173.01C108.291 169.254 103.405 168.12 99.5499 170.138C87.7497 176.314 74.3134 179.808 60.0577 179.808C45.0176 179.808 30.8896 175.919 18.6327 169.094C14.7564 166.936 9.73402 168.029 7.51356 171.859L3.01601 179.617C1.01542 183.068 2.03478 187.499 5.50025 189.491C21.5561 198.72 40.1877 204 60.0577 204C79.0032 204 96.823 199.2 112.358 190.753C115.927 188.813 117.017 184.307 114.984 180.8L110.469 173.01Z" fill="white"/>
<path opacity="0.8" d="M89.0961 141.852C87.3758 139.067 83.6555 138.039 80.4135 139.116C74.6495 141.03 68.4434 142.072 61.977 142.072C54.8545 142.072 48.0478 140.807 41.7998 138.506C38.5087 137.294 34.6398 138.29 32.8711 141.154L30.8765 144.383C29.0351 147.364 30.1732 151.205 33.5574 152.563C42.2779 156.062 51.8853 158 61.977 158C71.2564 158 80.1264 156.362 88.2738 153.377C91.7729 152.096 93.0025 148.176 91.1234 145.134L89.0961 141.852Z" fill="white"/>
<path fill-rule="evenodd" clip-rule="evenodd" d="M61 122C94.6894 122 122 94.6894 122 61C122 27.3106 94.6894 0 61 0C27.3106 0 0 27.3106 0 61C0 94.6894 27.3106 122 61 122ZM61 97.7184C81.279 97.7184 97.7184 81.279 97.7184 61C97.7184 40.721 81.279 24.2816 61 24.2816C40.721 24.2816 24.2816 40.721 24.2816 61C24.2816 81.279 40.721 97.7184 61 97.7184Z" fill="white"/>
<path fill-rule="evenodd" clip-rule="evenodd" d="M59.1311 0C58.484 0 57.95 0.454465 57.95 1.02938C57.95 15.6211 71.2639 27.45 87.6875 27.45C104.111 27.45 117.425 15.6211 117.425 1.02938C117.425 0.454466 116.891 0 116.244 0H59.1311Z" fill="white"/>
</svg>
