<svg width="253" height="102" viewBox="0 0 253 102" fill="none" xmlns="http://www.w3.org/2000/svg">
<path opacity="0.8" d="M55.2343 86.5052C54.1455 84.627 51.7025 84.06 49.7749 85.0689C43.8748 88.1568 37.1567 89.9041 30.0288 89.9041C22.5087 89.9041 15.4448 87.9593 9.3163 84.5471C7.37815 83.468 4.86695 84.0143 3.75672 85.9295L1.50794 89.8087C0.507648 91.5342 1.01733 93.7497 2.75006 94.7456C10.778 99.3599 20.0938 102 30.0288 102C39.5015 102 48.4114 99.5998 56.1788 95.3767C57.9633 94.4064 58.5086 92.1535 57.4921 90.3999L55.2343 86.5052Z" fill="#133155"/>
<path opacity="0.8" d="M44.548 70.9261C43.6879 69.5336 41.8277 69.0196 40.2067 69.5579C37.3247 70.5148 34.2217 71.0358 30.9885 71.0358C27.4272 71.0358 24.0239 70.4037 20.8999 69.2531C19.2544 68.6471 17.3199 69.1452 16.4356 70.5768L15.4383 72.1913C14.5175 73.6819 15.0866 75.6025 16.7787 76.2815C21.139 78.0311 25.9427 79 30.9885 79C35.6282 79 40.0632 78.1808 44.1369 76.6887C45.8865 76.0479 46.5012 74.0881 45.5617 72.567L44.548 70.9261Z" fill="#133155"/>
<path fill-rule="evenodd" clip-rule="evenodd" d="M30.5 61C47.3447 61 61 47.3447 61 30.5C61 13.6553 47.3447 0 30.5 0C13.6553 0 0 13.6553 0 30.5C0 47.3447 13.6553 61 30.5 61ZM30.5 48.8592C40.6395 48.8592 48.8592 40.6395 48.8592 30.5C48.8592 20.3605 40.6395 12.1408 30.5 12.1408C20.3605 12.1408 12.1408 20.3605 12.1408 30.5C12.1408 40.6395 20.3605 48.8592 30.5 48.8592Z" fill="#133155"/>
<path fill-rule="evenodd" clip-rule="evenodd" d="M29.5655 0C29.242 0 28.975 0.227233 28.975 0.514692C28.975 7.81054 35.632 13.725 43.8438 13.725C52.0555 13.725 58.7125 7.81054 58.7125 0.514692C58.7125 0.227233 58.4455 0 58.122 0H29.5655Z" fill="#133155"/>
<path d="M128.073 40.0609V38.7126C128.073 37.9764 127.475 37.3795 126.737 37.3795H107.311C106.573 37.3795 105.975 37.9764 105.975 38.7126V43.7251C105.975 44.4613 106.573 45.0582 107.311 45.0582H116.986C117.827 45.0582 118.463 45.8305 118.176 46.6203C116.582 51.0115 112.192 53.9557 106.769 53.9557C99.0165 53.9557 93.0953 47.9224 93.0953 40C93.0953 32.0776 98.8333 26.1053 106.525 26.1053C110.639 26.1053 114.309 27.6802 117.182 30.6088C117.717 31.154 118.594 31.2174 119.157 30.7006L123.362 26.8345C123.882 26.3565 123.942 25.5533 123.461 25.0365C119.341 20.6113 113.146 18 106.525 18C93.8889 18 84 27.6288 84 40C84 52.3712 93.9499 62 106.647 62C118.977 62 128.073 52.6759 128.073 40.0609Z" fill="#133155"/>
<path d="M133.563 59.9965C133.563 60.7328 134.161 61.3296 134.898 61.3296H140.591C141.328 61.3296 141.926 60.7328 141.926 59.9965V41.1124C141.926 40.902 141.975 40.6937 142.076 40.5093C143.69 37.5844 146.482 36.0388 149.617 36.0388C150.4 36.0388 151.184 36.119 151.925 36.2712C152.874 36.466 153.89 35.7976 153.89 34.8302V30.3526C153.89 29.8742 153.638 29.4175 153.187 29.2565C152.481 29.0044 151.629 28.8927 150.411 28.8476C147.808 28.8476 145.535 29.6382 143.713 31.1468C143.075 31.6754 141.926 31.2637 141.926 30.4357C141.926 29.9625 141.542 29.5789 141.068 29.5789H134.898C134.161 29.5789 133.563 30.1758 133.563 30.912V59.9965Z" fill="#133155"/>
<path d="M180.617 60.4726C180.617 60.9459 181.001 61.3296 181.475 61.3296H187.522C188.26 61.3296 188.858 60.7328 188.858 59.9965V31.2833C188.858 30.417 188.043 29.7808 187.201 29.9895L181.062 31.5103C180.701 31.6 180.319 31.5317 180 31.3401C177.595 29.8982 174.738 29.1524 171.827 29.1524C162.609 29.1524 155.406 36.2825 155.406 45.4238C155.406 54.5651 162.548 61.7562 171.583 61.7562C174.329 61.7562 176.912 61.0631 179.164 59.7101C179.778 59.3414 180.617 59.7574 180.617 60.4726ZM163.647 45.4238C163.647 40.1828 167.615 36.2216 172.926 36.2216C175.713 36.2216 178.287 37.1739 180.107 38.8321C180.363 39.0653 180.495 39.4012 180.495 39.7472V51.0391C180.495 51.3853 180.363 51.7211 180.108 51.9566C178.259 53.6701 175.832 54.626 172.926 54.626C167.676 54.626 163.647 50.6039 163.647 45.4238Z" fill="#133155"/>
<path d="M199.774 52.3712C199.774 58.5873 203.437 61.8172 210.518 61.8172C212.049 61.8172 214.306 61.5188 216.04 61.1004C216.608 60.9631 216.988 60.444 216.988 59.86V55.8662C216.988 54.9563 216.095 54.3228 215.202 54.5035C214.328 54.6802 213.498 54.7479 212.532 54.7479C209.297 54.7479 208.137 53.651 208.137 50.6648V37.9204C208.137 37.1841 208.735 36.5873 209.472 36.5873H215.836C216.574 36.5873 217.171 35.9904 217.171 35.2542V30.912C217.171 30.1758 216.574 29.5789 215.836 29.5789H209.472C208.735 29.5789 208.137 28.9821 208.137 28.2458V21.2529C208.137 20.398 207.342 19.764 206.507 19.9527L200.815 21.2386C200.206 21.3761 199.774 21.9159 199.774 22.5388V28.2458C199.774 28.9821 199.176 29.5789 198.439 29.5789H194.578C193.841 29.5789 193.243 30.1758 193.243 30.912V35.2542C193.243 35.9904 193.841 36.5873 194.578 36.5873H198.439C199.176 36.5873 199.774 37.1841 199.774 37.9204V52.3712Z" fill="#133155"/>
<path d="M244.759 60.4726C244.759 60.9459 245.144 61.3296 245.618 61.3296H251.665C252.402 61.3296 253 60.7328 253 59.9965V31.2833C253 30.417 252.185 29.7808 251.343 29.9895L245.205 31.5103C244.843 31.6 244.462 31.5317 244.142 31.3401C241.737 29.8982 238.88 29.1524 235.969 29.1524C226.752 29.1524 219.549 36.2825 219.549 45.4238C219.549 54.5651 226.691 61.7562 235.725 61.7562C238.471 61.7562 241.054 61.0631 243.306 59.7101C243.92 59.3414 244.759 59.7574 244.759 60.4726ZM227.789 45.4238C227.789 40.1828 231.757 36.2216 237.068 36.2216C239.855 36.2216 242.43 37.1739 244.25 38.8321C244.506 39.0653 244.637 39.4012 244.637 39.7472V51.0391C244.637 51.3853 244.505 51.7211 244.251 51.9566C242.401 53.6701 239.974 54.626 237.068 54.626C231.818 54.626 227.789 50.6039 227.789 45.4238Z" fill="#133155"/>
<path d="M111 87.6747C112.49 88.9612 114.592 89.6438 116.934 89.6438C120.154 89.6438 122.602 87.8322 122.602 85.4429C122.602 83.3687 121.191 82.1084 118.504 81.7146L116.056 81.3733C114.459 81.137 113.821 80.6644 113.821 79.6929C113.821 78.6164 114.912 77.8813 116.535 77.8813C117.972 77.8813 119.329 78.3014 120.819 79.2728L122.176 77.54C120.473 76.3847 118.717 75.8333 116.721 75.8333C113.554 75.8333 111.426 77.4612 111.426 79.8767C111.426 81.9509 112.783 83.1849 115.47 83.5788L117.918 83.9201C119.409 84.1301 120.1 84.6815 120.1 85.6267C120.1 86.8082 118.77 87.6221 116.854 87.6221C115.337 87.6221 113.847 87.0445 112.437 85.9418L111 87.6747Z" fill="#133155"/>
<path d="M124.646 89.4075H127.307V79.6929C128.052 78.6164 129.09 78.0651 130.367 78.0651C132.283 78.0651 133.481 79.3516 133.481 81.4521V89.4075H136.115V81.0057C136.115 80.6119 136.088 80.218 136.009 79.8505C136.78 78.6689 137.845 78.0651 139.175 78.0651C141.091 78.0651 142.288 79.3516 142.288 81.4521V89.4075H144.949V81.0057C144.949 77.9075 142.847 75.7808 139.867 75.7808C137.951 75.7808 136.381 76.5422 135.29 78.0126C134.439 76.621 132.949 75.7808 131.112 75.7808C129.596 75.7808 128.319 76.3059 127.307 77.3037V76.0434H124.646V89.4075Z" fill="#133155"/>
<path d="M158.385 89.4075H161.019V76.0434H158.359V77.1461C157.188 76.3059 155.777 75.8333 154.287 75.8333C150.402 75.8333 147.396 78.8527 147.396 82.7123C147.396 86.5982 150.402 89.6176 154.234 89.6176C155.804 89.6176 157.241 89.0925 158.385 88.1473V89.4075ZM150.003 82.6861C150.003 80.0605 151.999 78.0913 154.607 78.0913C156.097 78.0913 157.48 78.669 158.359 79.6667V85.7317C157.454 86.7557 156.123 87.3333 154.607 87.3333C151.999 87.3333 150.003 85.3116 150.003 82.6861Z" fill="#133155"/>
<path d="M164.171 89.4075H166.832V80.4806C167.523 78.879 168.774 78.0388 170.344 78.0388C170.876 78.0388 171.408 78.1438 171.914 78.3276V75.9646C171.515 75.8071 171.142 75.7546 170.557 75.7546C168.96 75.7546 167.656 76.4635 166.832 77.75V76.0434H164.171V89.4075Z" fill="#133155"/>
<path d="M175.905 86.0993C175.905 88.4098 177.316 89.6438 179.95 89.6438C180.748 89.6438 181.759 89.4863 182.478 89.25V87.0445C181.813 87.2808 181.28 87.3596 180.535 87.3596C179.098 87.3596 178.54 86.8607 178.54 85.4954V78.2489H182.531V76.0434H178.54V72L175.905 72.6301V76.0434H173.032V78.2489H175.905V86.0993Z" fill="#133155"/>
<path d="M201.787 87.8847L200.084 86.2306C199.233 86.9658 197.982 87.4121 196.651 87.4121C194.31 87.4121 192.447 85.8105 192.075 83.5788H202.772V82.8174C202.772 78.879 199.951 75.8333 196.226 75.8333C192.421 75.8333 189.44 78.8527 189.44 82.7123C189.44 86.6244 192.554 89.6438 196.545 89.6438C198.567 89.6438 200.217 89.0925 201.787 87.8847ZM196.172 78.0388C198.142 78.0388 199.738 79.5616 200.137 81.6096H192.101C192.5 79.4829 194.124 78.0388 196.172 78.0388Z" fill="#133155"/>
<path d="M205.306 89.4075H207.967V79.7979C208.712 78.6689 209.883 78.0651 211.32 78.0651C213.369 78.0651 214.672 79.3516 214.672 81.4521V89.4075H217.333V81.0057C217.333 77.9075 215.151 75.7808 212.038 75.7808C210.415 75.7808 209.031 76.3322 207.967 77.3824V76.0434H205.306V89.4075Z" fill="#133155"/>
<path d="M221.64 86.0993C221.64 88.4098 223.05 89.6438 225.685 89.6438C226.483 89.6438 227.494 89.4863 228.213 89.25V87.0445C227.547 87.2808 227.015 87.3596 226.27 87.3596C224.833 87.3596 224.274 86.8607 224.274 85.4954V78.2489H228.266V76.0434H224.274V72L221.64 72.6301V76.0434H218.766V78.2489H221.64V86.0993Z" fill="#133155"/>
<path d="M230.226 89.4075H232.887V80.4806C233.579 78.879 234.83 78.0388 236.4 78.0388C236.932 78.0388 237.464 78.1438 237.969 78.3276V75.9646C237.57 75.8071 237.198 75.7546 236.612 75.7546C235.016 75.7546 233.712 76.4635 232.887 77.75V76.0434H230.226V89.4075Z" fill="#133155"/>
<path d="M243.74 90.6678C243.155 92.0068 242.276 92.637 241.052 92.637C240.547 92.637 240.228 92.6107 239.855 92.532V94.8425C240.201 94.9475 240.707 95 241.265 95C243.767 95 245.203 93.871 246.454 91.0091L253 76.0434H250.126L245.762 86.2568L241.797 76.0434H238.87L244.272 89.46L243.74 90.6678Z" fill="#133155"/>
</svg>
