<svg width="48" height="48" viewBox="0 0 48 48" fill="none" xmlns="http://www.w3.org/2000/svg">
<path d="M36.4298 25.0495V21.2168C36.4298 15.6256 32.7133 10.8866 27.6212 9.33881V7.60352C27.6212 5.61654 26.0046 4 24.0177 4C22.0307 4 20.4142 5.61654 20.4142 7.60352V9.33881C15.322 10.8866 11.6056 15.6255 11.6056 21.2168V25.0495C11.6056 29.9608 9.7335 34.6179 6.33426 38.1628C6.00113 38.5101 5.90752 39.0227 6.09635 39.4654C6.28517 39.9081 6.72 40.1953 7.20127 40.1953H18.1326C18.6906 42.9333 21.1173 45 24.0177 45C26.9181 45 29.3446 42.9333 29.9027 40.1953H40.8341C41.3153 40.1953 41.7501 39.9081 41.9389 39.4654C42.1277 39.0227 42.0341 38.5101 41.7011 38.1628C38.3018 34.6179 36.4298 29.9608 36.4298 25.0495V25.0495ZM22.8165 7.60352C22.8165 6.94119 23.3553 6.40234 24.0177 6.40234C24.68 6.40234 25.2188 6.94119 25.2188 7.60352V8.86298C24.8235 8.82487 24.4229 8.80469 24.0177 8.80469C23.6125 8.80469 23.2118 8.82487 22.8165 8.86298V7.60352ZM24.0177 42.5977C22.4517 42.5977 21.1166 41.5934 20.6208 40.1953H27.4146C26.9187 41.5934 25.5836 42.5977 24.0177 42.5977V42.5977ZM9.79019 37.793C12.5257 34.126 14.0079 29.6884 14.0079 25.0495V21.2168C14.0079 15.6974 18.4983 11.207 24.0177 11.207C29.5371 11.207 34.0274 15.6974 34.0274 21.2168V25.0495C34.0274 29.6884 35.5096 34.126 38.2452 37.793H9.79019Z" fill="#133155"/>
<path d="M39.6329 21.2168C39.6329 21.8802 40.1707 22.418 40.834 22.418C41.4974 22.418 42.0352 21.8802 42.0352 21.2168C42.0352 16.4041 40.1611 11.8794 36.758 8.47637C36.289 8.00735 35.5284 8.00727 35.0593 8.47637C34.5902 8.94546 34.5902 9.70597 35.0593 10.1751C38.0086 13.1244 39.6329 17.0458 39.6329 21.2168V21.2168Z" fill="#133155"/>
<path d="M7.20129 22.4179C7.86466 22.4179 8.40247 21.8801 8.40247 21.2168C8.40247 17.0458 10.0268 13.1245 12.976 10.1751C13.4451 9.70603 13.4451 8.94552 12.976 8.47643C12.507 8.00733 11.7464 8.00733 11.2773 8.47643C7.87427 11.8795 6.00012 16.4041 6.00012 21.2168C6.00012 21.8801 6.53793 22.4179 7.20129 22.4179V22.4179Z" fill="#133155"/>
</svg>
