<svg width="40" height="41" viewBox="0 0 40 41" fill="none" xmlns="http://www.w3.org/2000/svg">
<path fill-rule="evenodd" clip-rule="evenodd" d="M13.4645 28.355C5.62809 29.2351 0 31.654 0 34.5C0 38.0898 8.9543 41 20 41C31.0457 41 40 38.0898 40 34.5C40 31.654 34.3719 29.2351 26.5355 28.355C26.0834 29.0097 25.6343 29.6371 25.1983 30.2296C28.4343 30.5226 31.2893 31.0796 33.524 31.8059C35.2202 32.3572 36.448 32.9705 37.2097 33.5558C37.5849 33.8441 37.7939 34.0852 37.9012 34.2556C38 34.4126 38 34.4865 38 34.5C38 34.5135 38 34.5874 37.9012 34.7443C37.7939 34.9148 37.5849 35.1559 37.2097 35.4442C36.448 36.0295 35.2202 36.6428 33.524 37.1941C30.1536 38.2895 25.3719 39 20 39C14.6281 39 9.84644 38.2895 6.47604 37.1941C4.77979 36.6428 3.55199 36.0295 2.79028 35.4442C2.41509 35.1559 2.2061 34.9148 2.09879 34.7443C1.99999 34.5874 2 34.5134 2 34.4999C2 34.4864 1.99999 34.4126 2.09879 34.2556C2.2061 34.0852 2.41509 33.8441 2.79028 33.5558C3.55199 32.9705 4.77979 32.3572 6.47604 31.8059C8.71065 31.0796 11.5657 30.5226 14.8017 30.2296C14.3657 29.6371 13.9166 29.0097 13.4645 28.355Z" fill="#133155"/>
<g clip-path="url(#clip0)">
<path d="M20 -0.5C12.5348 -0.5 6.46216 5.57259 6.46216 13.0378C6.46216 15.3678 7.22125 17.9328 8.33569 20.4531C9.45288 22.9795 10.9433 25.4966 12.4423 27.7401C15.4402 32.2273 18.499 35.6601 18.7545 35.9446C19.42 36.6858 20.5813 36.6844 21.2455 35.9446C21.501 35.6601 24.5598 32.2273 27.5577 27.7401C29.0567 25.4966 30.5471 22.9795 31.6643 20.4531C32.7787 17.9328 33.5378 15.3678 33.5378 13.0378C33.5377 5.57259 27.4652 -0.5 20 -0.5ZM20 19.0974C16.6591 19.0974 13.9404 16.3786 13.9404 13.0378C13.9404 9.6969 16.6592 6.97817 20 6.97817C23.3408 6.97817 26.0595 9.69695 26.0595 13.0378C26.0595 16.3787 23.3408 19.0974 20 19.0974Z" fill="#133155" stroke="white"/>
</g>
<defs>
<clipPath id="clip0">
<rect width="36" height="36" fill="white" transform="translate(2)"/>
</clipPath>
</defs>
</svg>
