<svg width="48" height="48" viewBox="0 0 48 48" fill="none" xmlns="http://www.w3.org/2000/svg">
<path fill-rule="evenodd" clip-rule="evenodd" d="M21.5 44H9.83333C7.5 44 5.66667 42.1 5.66667 39.8333V20.4333C4.56333 19.645 4 18.4317 4 17.1983C4 16.5717 4.14833 15.9483 4.48167 15.3167C6.25667 12.1533 8.07 9.01167 9.92333 5.89333C10.6933 4.665 11.9417 4 13.3317 4C14.39 4 14.9517 4.34 15.74 4.79833C16.8433 5.44167 30.74 13.7183 36.5933 17.2C36.7383 17.2867 42.2033 20.5133 42.3417 20.6083C43.4467 21.425 44 22.6033 44 23.8317C44 24.4567 43.8467 25.0733 43.5083 25.715C41.735 28.88 39.92 32.0217 38.0667 35.14C37.105 36.6733 35.375 37.29 33.9067 36.9533C33.2533 37.3433 24.1967 43.2033 23.4867 43.5667C22.7983 43.92 22.2167 44 21.5 44V44ZM9 26.0617V39.8333C9 40.29 9.36833 40.6667 9.83333 40.6667H17.48C14.6133 35.8233 11.785 30.955 9 26.0617V26.0617ZM11.6767 23.9983C11.765 24.1517 21.145 40.3267 21.22 40.43C21.4 40.6617 21.7183 40.7317 21.9783 40.5933C22.2517 40.44 30.4467 35.175 30.4467 35.175C29.3817 34.5467 16.8733 27.09 11.6767 23.9983V23.9983ZM12.775 7.61667C11.2533 10.0433 7.44333 16.825 7.38333 16.9667C7.26667 17.2517 7.37 17.5767 7.63167 17.74C7.96667 17.94 34.3367 33.6517 34.5933 33.6917C34.845 33.7283 35.0883 33.6167 35.2217 33.4017C36.7917 30.7617 40.565 24.1517 40.6083 24.0667C40.7233 23.78 40.62 23.455 40.3583 23.2917C40.0233 23.0917 13.72 7.46 13.5417 7.38167C13.2417 7.25833 12.9333 7.37833 12.775 7.61667V7.61667ZM15.37 12.1083C17.21 12.1083 18.7033 13.6033 18.7033 15.4417C18.7033 17.2817 17.21 18.775 15.37 18.775C13.53 18.775 12.0367 17.2817 12.0367 15.4417C12.0367 13.6033 13.53 12.1083 15.37 12.1083Z" fill="#133155"/>
</svg>
