<svg width="48" height="48" viewBox="0 0 48 48" fill="none" xmlns="http://www.w3.org/2000/svg">
<path d="M15.176 6H10C7.79 6 6 7.79 6 10V15.176" stroke="#133155" stroke-width="2" stroke-linecap="round" stroke-linejoin="round"/>
<path d="M32.8242 42.0001H38.0002C40.2102 42.0001 42.0002 40.2101 42.0002 38.0001V32.8241" stroke="#133155" stroke-width="2" stroke-linecap="round" stroke-linejoin="round"/>
<path d="M6 32.8241V38.0001C6 40.2101 7.79 42.0001 10 42.0001H15.176" stroke="#133155" stroke-width="2" stroke-linecap="round" stroke-linejoin="round"/>
<path d="M42.0002 15.176V10C42.0002 7.79 40.2102 6 38.0002 6H32.8242" stroke="#133155" stroke-width="2" stroke-linecap="round" stroke-linejoin="round"/>
<g clip-path="url(#clip0)">
<path d="M32.5141 22.8291C32.5137 22.8287 32.5133 22.8283 32.5129 22.8279L25.1703 15.4856C24.8574 15.1725 24.4413 15 23.9986 15C23.556 15 23.1399 15.1723 22.8268 15.4855L15.4881 22.8241C15.4856 22.8265 15.4831 22.8291 15.4807 22.8316C14.838 23.478 14.8391 24.5268 15.4838 25.1716C15.7784 25.4663 16.1675 25.637 16.5834 25.6548C16.6003 25.6565 16.6173 25.6573 16.6345 25.6573H16.9272V31.0608C16.9272 32.13 17.7971 33 18.8667 33H21.7393C22.0304 33 22.2666 32.7639 22.2666 32.4727V28.2363C22.2666 27.7484 22.6635 27.3515 23.1515 27.3515H24.8458C25.3338 27.3515 25.7306 27.7484 25.7306 28.2363V32.4727C25.7306 32.7639 25.9667 33 26.258 33H29.1306C30.2001 33 31.0701 32.13 31.0701 31.0608V25.6573H31.3415C31.784 25.6573 32.2001 25.4849 32.5133 25.1718C33.1588 24.526 33.159 23.4754 32.5141 22.8291V22.8291Z" fill="#133155"/>
</g>
<defs>
<clipPath id="clip0">
<rect width="18" height="18" fill="white" transform="translate(15 15)"/>
</clipPath>
</defs>
</svg>
